<?xml version="1.0" standalone="no"?>
<!DOCTYPE svg PUBLIC "-//W3C//DTD SVG 20010904//EN"
 "http://www.w3.org/TR/2001/REC-SVG-20010904/DTD/svg10.dtd">
<svg version="1.0" xmlns="http://www.w3.org/2000/svg"
 width="1920.000000pt" height="1080.000000pt" viewBox="0 0 1920.000000 1080.000000"
 preserveAspectRatio="xMidYMid meet">
<metadata>
Created by potrace 1.16, written by Peter Selinger 2001-2019
</metadata>
<g transform="translate(0.000000,1080.000000) scale(0.100000,-0.100000)"
fill="#000000" stroke="none">
<path d="M0 7383 l0 -3417 25 34 c14 19 25 44 25 55 0 16 11 27 41 40 44 20
77 59 100 115 20 52 76 142 102 165 12 11 33 35 45 53 22 31 69 61 120 76 20
7 21 5 12 -18 -5 -14 -7 -26 -4 -26 16 0 63 36 67 50 2 9 25 31 50 48 43 29
46 29 52 12 9 -28 -89 -169 -118 -170 -4 0 -1 13 8 30 20 38 19 43 -6 30 -22
-12 -59 -67 -59 -89 0 -11 3 -11 16 0 9 7 5 -4 -10 -25 -14 -21 -26 -44 -26
-50 0 -6 -12 -28 -26 -49 -20 -31 -28 -36 -39 -27 -12 10 -12 15 2 36 13 20
13 24 1 24 -17 0 -38 -23 -58 -63 -7 -15 -27 -42 -43 -60 -16 -17 -45 -52 -65
-77 -20 -25 -70 -83 -112 -130 -41 -47 -76 -87 -77 -89 -2 -2 -5 -2 -8 1 -3 3
11 25 30 49 19 24 35 51 35 60 0 9 7 22 15 29 8 7 15 18 15 26 0 7 9 16 20 19
11 4 28 19 37 33 9 15 44 60 78 99 87 104 108 133 102 139 -10 10 -45 -16 -78
-58 -19 -24 -42 -52 -53 -63 -10 -11 -35 -42 -56 -70 -21 -27 -52 -63 -70 -80
-17 -16 -45 -49 -60 -72 -27 -39 -29 -50 -29 -133 0 -78 2 -90 17 -90 16 -1
16 -2 0 -14 -15 -11 -18 -31 -18 -136 l0 -123 20 23 c11 13 20 33 20 46 0 28
50 71 61 52 6 -9 13 -7 29 7 l22 20 -24 7 -23 6 24 8 23 7 -28 12 -29 12 30 8
c17 4 41 11 55 15 24 8 23 8 -7 9 -36 1 -42 11 -17 32 8 7 26 34 39 59 21 42
95 114 95 92 0 -12 -40 -47 -41 -36 0 5 -14 -18 -30 -51 -42 -86 -1 -85 52 2
11 18 27 33 36 33 8 0 29 15 46 33 19 20 32 27 34 19 4 -9 12 -8 34 5 16 10
28 22 25 28 -2 6 5 22 15 36 31 40 23 54 -15 25 -44 -33 -53 -33 -27 0 12 15
21 32 21 39 0 16 51 55 114 87 29 15 44 28 38 32 -8 5 -6 14 8 28 14 16 17 24
8 29 -15 10 7 43 74 112 45 46 59 50 21 5 -8 -9 -19 -34 -23 -54 l-9 -38 27
34 c43 55 73 80 98 80 12 0 26 5 30 11 5 8 -3 10 -25 7 -40 -6 -40 10 -1 47
35 34 39 49 9 40 -18 -6 -19 -4 -11 12 14 25 50 56 68 59 8 1 22 12 32 23 9
12 33 30 52 40 33 17 52 42 64 84 8 25 6 32 -7 29 -7 -2 -3 7 9 20 28 30 41
53 26 44 -12 -7 87 143 118 179 9 11 33 50 54 87 34 63 64 100 49 63 -4 -13
-1 -16 12 -13 11 2 22 16 27 33 12 48 92 123 167 159 79 37 235 130 350 209
47 31 93 57 102 57 10 0 37 -23 61 -50 24 -28 51 -53 60 -56 19 -6 70 18 153
71 65 42 151 77 178 73 18 -3 16 -7 -16 -45 -19 -24 -37 -46 -39 -50 -4 -11
-85 -63 -97 -63 -5 0 -19 -12 -30 -26 -19 -24 -19 -27 -3 -43 9 -10 27 -24 40
-30 12 -6 22 -18 22 -25 0 -7 9 -34 20 -59 11 -25 21 -63 22 -86 1 -23 6 -42
12 -42 6 -1 18 -3 26 -4 8 -1 22 -3 31 -4 27 -2 64 -44 93 -103 23 -49 25 -60
15 -80 -7 -13 -14 -36 -15 -53 -1 -16 -5 -47 -9 -67 -7 -35 -4 -40 34 -74 23
-21 41 -47 42 -58 0 -12 3 -15 6 -8 6 15 33 16 33 1 0 -5 5 -7 10 -4 14 9 13
-13 -4 -68 -11 -37 -11 -48 -1 -57 9 -7 15 3 24 45 13 58 28 77 42 54 6 -10 9
-10 9 -2 0 19 28 4 35 -18 4 -11 2 -26 -5 -34 -9 -10 -6 -23 9 -54 24 -45 26
-62 11 -91 -5 -11 -14 -29 -20 -39 -5 -11 -6 -21 -1 -23 4 -2 1 -45 -8 -96
-14 -85 -14 -96 2 -140 l17 -47 -23 26 c-12 14 -45 40 -73 57 -28 18 -59 41
-69 52 -25 28 -104 52 -140 42 -23 -7 -30 -15 -32 -36 -1 -15 -7 -33 -12 -40
-6 -7 -8 -16 -4 -19 3 -4 -1 -7 -9 -7 -9 0 -18 6 -21 14 -3 8 -18 16 -34 18
-23 2 -34 -5 -66 -45 l-38 -47 -30 15 c-35 18 -69 50 -69 65 0 6 -4 10 -10 10
-11 0 -40 -53 -40 -74 0 -26 -30 -46 -71 -46 -37 0 -41 -3 -58 -43 -24 -56
-43 -70 -81 -62 -24 5 -29 11 -26 28 13 62 17 84 22 102 4 15 1 14 -10 -5 -15
-25 -15 -25 -16 -2 0 12 -4 22 -10 22 -5 0 -10 7 -10 15 0 8 -7 15 -15 15 -13
0 -28 6 -64 27 -2 2 2 11 9 20 8 10 -7 -4 -32 -30 -34 -36 -52 -48 -70 -45
-19 2 -23 9 -24 38 -1 33 -33 129 -34 102 0 -7 -5 -10 -12 -6 -8 5 -9 2 -5
-10 4 -10 3 -15 -3 -11 -14 9 -56 -62 -78 -135 -11 -36 -36 -117 -55 -180 -20
-63 -48 -162 -62 -220 -15 -58 -34 -116 -43 -130 -9 -14 -21 -56 -28 -95 -7
-38 -26 -135 -43 -215 -58 -267 -109 -561 -172 -995 -19 -129 -38 -251 -53
-332 -2 -12 -26 -50 -53 -85 -60 -79 -122 -170 -153 -225 -13 -24 -27 -43 -31
-43 -4 0 -15 30 -25 68 -21 80 -38 103 -73 100 -44 -5 -61 45 -61 180 0 108
-1 112 -19 100 -11 -7 -33 -49 -50 -97 -34 -95 -51 -127 -51 -100 0 19 -23 69
-32 69 -6 0 -48 -102 -48 -116 0 -4 -19 -54 -42 -113 -51 -129 -89 -189 -126
-197 -75 -17 -111 -28 -155 -46 l-47 -20 0 -203 c0 -154 3 -204 13 -208 10 -4
10 -7 0 -18 -9 -9 -13 -48 -13 -117 l0 -105 57 6 c34 4 77 1 107 -7 28 -8 75
-11 104 -9 35 4 52 2 52 -6 0 -6 -6 -11 -12 -11 -10 0 -10 -3 0 -9 10 -6 5
-12 -20 -21 -29 -11 -31 -13 -13 -20 17 -7 18 -9 4 -14 -9 -4 -16 -20 -17 -36
-4 -64 -1 -62 -60 -54 -66 8 -202 -13 -202 -32 0 -7 6 -15 13 -17 10 -4 10 -6
0 -6 -8 -1 -13 -15 -13 -35 0 -19 6 -37 13 -39 10 -4 10 -6 0 -6 -10 -1 -13
-49 -13 -206 l0 -205 9595 0 9595 0 0 5395 0 5395 -9595 0 -9595 0 0 -3417z
m14263 1940 c17 -20 20 -33 18 -75 -1 -32 -31 -40 -31 -8 0 27 -34 26 -60 0
-12 -12 -24 -19 -29 -16 -6 4 -51 -82 -51 -98 0 -2 20 -6 45 -8 35 -2 45 0 45
12 0 8 5 22 11 30 8 11 9 0 4 -40 -8 -59 -8 -86 -2 -110 2 -8 8 -33 12 -56 5
-29 15 -46 36 -60 26 -16 29 -24 24 -50 -6 -34 2 -64 16 -64 5 0 10 10 10 23
1 15 3 17 6 5 2 -9 16 -24 30 -33 20 -14 24 -22 19 -46 -3 -16 -3 -43 1 -59 5
-28 7 -29 19 -13 12 17 13 16 14 -7 0 -14 3 -36 5 -50 5 -22 4 -22 -4 -5 -8
16 -10 12 -10 -22 -1 -23 4 -45 9 -48 6 -3 10 3 10 14 0 19 17 38 26 28 7 -7
-29 -117 -38 -117 -5 0 -13 -11 -18 -24 -6 -17 -14 -23 -28 -20 -23 6 -45 -19
-39 -43 4 -14 5 -13 6 5 0 12 8 25 16 29 25 9 28 -3 8 -25 -38 -43 -43 -52
-43 -89 0 -21 -9 -57 -20 -80 -10 -24 -15 -43 -10 -43 16 0 12 -27 -10 -65
-11 -20 -20 -47 -20 -62 0 -17 -13 -39 -40 -65 -22 -22 -38 -44 -35 -49 4 -5
-1 -6 -9 -3 -8 3 -27 -9 -48 -31 -82 -91 -97 -103 -118 -98 -11 3 -20 10 -20
15 0 6 -7 7 -16 4 -21 -8 -73 -49 -73 -58 -1 -4 -17 -28 -36 -54 -19 -25 -35
-51 -35 -57 0 -7 -14 -23 -31 -37 -53 -44 -83 -76 -104 -111 -11 -19 -38 -43
-59 -54 -59 -30 -69 -38 -244 -205 -14 -13 -15 -13 -10 8 5 19 -3 13 -38 -23
-35 -37 -44 -43 -44 -27 0 37 -42 53 -112 44 -82 -10 -249 -9 -313 4 -27 5
-71 7 -98 4 -67 -8 -246 13 -257 30 -5 7 -14 15 -22 16 -68 15 -90 26 -120 59
-18 21 -36 45 -40 54 -4 11 -7 12 -7 2 -1 -7 -7 -11 -15 -8 -9 4 -17 -2 -21
-13 -3 -10 -13 -21 -21 -24 -13 -5 -15 0 -9 34 4 22 4 40 0 40 -3 0 -21 -10
-38 -22 -18 -13 -39 -24 -47 -26 -15 -3 -45 -33 -53 -55 -4 -9 -8 -8 -16 3 -7
9 -11 10 -11 3 0 -7 -14 -11 -38 -10 -31 1 -48 -6 -84 -36 -25 -20 -49 -37
-54 -37 -5 0 -2 5 6 10 11 7 11 10 2 10 -7 0 -10 5 -7 10 4 6 9 8 13 6 4 -2 6
9 6 25 -2 46 -3 49 -19 49 -16 0 -65 45 -65 60 0 5 -7 7 -15 4 -9 -4 -15 0
-15 7 -1 10 -5 8 -15 -5 -7 -10 -18 -15 -23 -12 -6 3 -12 2 -14 -3 -1 -5 -18
-6 -36 -4 -26 4 -32 10 -30 27 1 11 -2 36 -7 54 -6 26 -11 31 -27 26 -17 -5
-19 -3 -13 15 13 43 -28 50 -45 7 -7 -19 -9 -18 -24 16 -22 52 -33 54 -41 8
-4 -24 -12 -40 -21 -40 -10 0 -11 6 -4 26 13 33 13 69 0 39 -11 -25 -13 -14
-10 58 2 62 -11 74 -30 27 -12 -29 -30 -41 -30 -20 0 6 -6 10 -14 10 -26 0
-24 28 4 55 15 15 36 48 45 73 10 26 22 52 27 59 5 6 11 40 13 75 6 88 7 92
19 100 8 5 7 11 -2 20 -6 6 -12 20 -12 30 0 11 -9 28 -20 40 -24 26 -26 48 -5
48 19 0 19 34 0 53 -8 8 -11 17 -8 21 4 3 1 6 -6 6 -16 0 -41 25 -41 41 0 6 8
19 18 28 32 28 40 53 35 109 -4 37 -2 56 6 61 8 5 12 33 12 72 0 36 3 69 7 75
9 14 42 26 39 15 -1 -5 3 -9 8 -9 6 0 9 4 8 9 -6 20 -6 25 1 52 9 31 30 35 45
10 9 -17 11 -16 31 4 11 13 20 25 20 28 -1 40 1 49 9 36 8 -12 12 -13 26 -1 9
7 14 19 11 25 -2 7 4 19 15 28 10 9 19 24 19 32 0 8 10 37 22 65 23 53 48 66
48 26 0 -46 22 -41 75 15 50 54 76 72 105 73 9 1 15 12 17 30 2 28 33 59 63
63 8 1 44 7 80 14 65 11 136 13 152 3 10 -6 158 56 158 66 0 3 19 7 41 9 23 1
71 16 108 32 62 29 76 31 210 35 100 3 148 1 158 -7 9 -8 36 -10 83 -5 64 6
75 4 133 -24 35 -16 70 -30 78 -30 19 -1 117 -35 157 -55 31 -16 34 -16 69 6
40 25 117 43 176 41 43 -2 82 15 112 48 25 27 62 49 49 28 -4 -7 -18 -21 -31
-31 -13 -10 -23 -22 -23 -27 0 -14 69 33 70 47 0 9 13 11 40 9 22 -2 40 0 40
5 0 5 7 9 15 9 19 0 19 -21 1 -64 -10 -24 -11 -37 -3 -45 7 -7 7 -14 -2 -24
-9 -11 -8 -17 3 -27 19 -15 36 -5 36 20 0 13 5 17 20 13 11 -3 20 -11 20 -18
0 -7 -9 -24 -20 -38 -22 -27 -26 -47 -10 -47 6 0 10 4 10 8 0 5 8 17 18 28 10
10 28 35 42 54 36 52 102 120 117 120 16 0 17 17 2 22 -17 6 18 38 40 38 10 0
25 -8 34 -17z m-7493 -3008 c0 -9 9 -15 24 -15 38 0 76 -18 117 -55 35 -31 42
-34 86 -29 26 3 68 1 92 -3 42 -8 45 -11 48 -43 5 -47 32 -81 74 -95 34 -12
34 -12 32 -71 -2 -53 1 -61 24 -78 25 -18 28 -19 56 -3 32 19 170 67 191 67
15 0 41 22 79 68 21 26 27 44 27 79 0 47 20 83 45 83 7 0 39 -16 71 -35 80
-48 104 -46 171 18 32 30 91 57 127 57 11 0 39 11 63 26 l43 25 29 -20 c16
-12 42 -21 58 -21 36 0 46 -8 67 -47 24 -48 67 -67 137 -59 77 8 93 -7 84 -75
-7 -47 -7 -48 35 -76 24 -15 54 -36 69 -46 16 -11 36 -16 53 -13 36 7 102 51
117 79 17 31 57 58 94 64 18 2 44 13 59 24 37 26 58 25 58 -5 0 -14 -4 -28
-10 -31 -5 -3 -10 -11 -10 -17 0 -7 5 -7 14 1 7 6 22 8 31 4 14 -5 17 -3 12
10 -3 9 -2 17 4 17 6 0 8 10 4 23 -5 18 -4 19 5 7 9 -13 11 -12 8 5 -4 22 29
58 47 51 6 -2 22 13 35 33 14 20 27 38 30 41 3 3 10 14 16 25 6 11 21 21 32
23 51 8 207 -90 219 -136 3 -15 12 -33 20 -40 22 -23 26 -59 10 -106 -15 -44
-10 -133 6 -93 3 9 16 17 28 17 12 0 37 9 55 21 44 27 44 9 -1 -25 -32 -25
-83 -41 -165 -53 -46 -6 -90 11 -90 36 0 22 -35 34 -60 21 -10 -5 -21 -21 -24
-35 -9 -36 -49 -49 -87 -30 -37 20 -105 13 -131 -12 -24 -25 -35 -88 -18 -108
16 -20 30 -3 30 35 0 49 42 66 75 30 14 -15 26 -18 54 -14 49 8 118 5 165 -7
51 -14 83 -5 118 33 27 29 95 61 110 51 5 -2 8 -13 8 -24 0 -11 11 -31 25 -45
14 -14 32 -41 40 -61 15 -36 16 -37 31 -15 8 12 22 38 30 57 23 55 48 44 52
-23 2 -28 6 -52 10 -52 14 0 30 16 45 46 9 17 32 39 52 48 36 18 44 40 25 75
-17 33 -27 96 -18 120 8 23 9 23 28 6 16 -14 25 -16 47 -7 16 6 39 13 53 15
36 8 164 -26 168 -44 1 -8 -26 -33 -63 -57 -36 -24 -65 -47 -65 -53 0 -5 14
-9 31 -9 21 0 32 -6 35 -18 7 -26 112 -57 161 -48 21 4 51 7 66 7 15 -1 56 12
90 29 34 16 74 30 89 30 16 0 42 12 62 31 55 47 78 17 31 -39 -22 -26 -32 -52
-21 -52 2 0 24 9 49 20 52 23 84 17 109 -22 23 -35 31 -78 16 -82 -44 -13 -49
-17 -41 -28 4 -7 6 -23 4 -36 -3 -23 -1 -23 63 -20 36 2 66 7 66 11 0 4 6 7
14 5 23 -5 86 59 86 87 0 14 10 35 23 48 l22 22 6 -40 c6 -47 28 -92 58 -119
21 -19 22 -19 51 2 38 28 44 28 59 -5 8 -16 17 -35 21 -43 4 -8 23 -23 43 -33
46 -22 47 -44 2 -63 -21 -8 -32 -19 -29 -27 3 -8 -6 -19 -22 -25 -21 -10 -24
-15 -14 -27 9 -11 9 -18 -4 -30 -9 -9 -16 -23 -16 -30 0 -11 7 -10 33 5 35 21
61 14 55 -15 -2 -13 5 -21 22 -25 14 -3 26 -12 27 -20 2 -15 -78 -80 -97 -80
-15 0 -42 -59 -36 -78 3 -9 2 -23 -2 -30 -14 -21 -47 25 -97 133 -80 172 -154
319 -176 350 l-21 30 7 -38 c3 -21 9 -46 12 -55 3 -12 0 -11 -14 4 -10 12 -34
27 -53 34 -32 11 -39 10 -85 -17 -33 -19 -51 -37 -53 -52 -2 -15 0 -21 7 -17
20 13 11 -23 -10 -43 l-21 -19 35 -10 c20 -6 57 -24 82 -42 44 -30 50 -32 86
-21 22 7 40 19 44 31 4 11 13 20 22 20 23 0 14 -32 -75 -287 -59 -172 -81
-223 -94 -223 -9 0 -20 4 -23 10 -5 9 -81 8 -89 -1 -13 -15 -35 -70 -33 -81 2
-7 2 -10 0 -5 -13 22 -93 -18 -93 -47 0 -7 -6 -20 -13 -30 -11 -15 -17 -17
-35 -7 -26 14 -27 27 -6 70 19 39 13 48 -21 33 -21 -10 -32 -9 -55 3 -36 19
-90 19 -115 1 -23 -16 -14 -43 18 -55 26 -10 57 -38 57 -51 0 -4 -20 -2 -45 5
-28 9 -47 10 -50 4 -9 -13 -94 -1 -123 17 -13 9 -37 14 -54 12 -34 -3 -61 -33
-42 -46 16 -10 25 -82 13 -103 -5 -11 -16 -19 -23 -19 -14 0 -36 49 -36 81 0
10 -8 23 -19 28 -10 6 -22 22 -25 37 -6 21 -11 25 -29 20 -12 -4 -51 -9 -87
-12 -70 -5 -84 -13 -106 -56 -11 -21 -22 -28 -43 -28 -16 0 -39 -9 -52 -19
-22 -17 -24 -28 -27 -130 l-4 -111 24 0 c20 0 28 8 41 41 26 67 57 31 33 -39
-7 -20 -5 -21 18 -12 17 6 27 6 31 -1 4 -5 15 -7 26 -4 11 4 19 2 19 -4 0 -6
12 -11 26 -11 15 0 32 -8 39 -17 7 -10 28 -18 46 -19 17 -1 36 -8 40 -17 6 -9
25 -15 55 -15 25 -1 52 -7 60 -13 9 -8 33 -10 65 -6 34 4 48 3 43 -5 -4 -6 -1
-9 6 -6 26 8 22 29 -9 41 -45 17 -38 24 20 23 42 -1 53 3 68 23 12 16 24 22
35 18 16 -6 16 -8 2 -23 -22 -21 -20 -27 6 -18 21 6 22 5 8 -11 -14 -17 -14
-18 10 -5 15 8 20 15 12 18 -6 2 -12 8 -12 14 0 6 7 7 16 4 10 -4 25 1 36 11
11 10 22 17 24 16 2 -1 27 8 55 22 49 22 79 24 79 4 0 -5 11 -9 24 -9 15 0 42
-17 72 -45 26 -25 53 -45 61 -45 7 0 13 -4 13 -9 0 -13 60 -35 91 -33 15 1 30
-2 34 -8 3 -5 12 -10 20 -10 17 0 -60 81 -93 99 -35 19 -16 32 20 14 41 -21
175 -25 204 -7 12 7 47 14 78 15 31 1 56 6 56 11 0 4 11 8 25 8 14 0 25 -4 25
-8 0 -5 16 -9 36 -10 20 -1 39 -4 42 -7 3 -2 11 3 19 13 13 16 14 15 8 -4 -4
-14 0 -24 9 -27 16 -6 31 7 23 21 -3 4 5 7 18 7 13 0 21 -3 19 -7 -2 -4 0 -9
6 -13 6 -4 10 6 11 22 l1 28 7 -30 7 -30 12 30 c10 25 11 26 8 5 -3 -14 -16
-67 -30 -118 -22 -83 -30 -100 -73 -145 -33 -35 -53 -67 -62 -99 -8 -28 -18
-45 -24 -41 -6 4 -7 1 -2 -6 4 -7 -4 -45 -19 -84 -14 -40 -34 -126 -45 -192
-11 -66 -26 -147 -33 -179 -10 -47 -10 -60 0 -64 6 -2 12 -10 12 -18 0 -29 18
-13 24 22 6 27 10 33 20 25 7 -6 28 -12 47 -13 31 -3 36 0 54 39 22 47 30 50
61 25 39 -32 96 -233 73 -257 -3 -3 -37 6 -75 18 -38 13 -90 27 -115 30 l-46
6 -6 -53 c-3 -29 -18 -86 -33 -127 -39 -105 -36 -189 12 -282 19 -37 34 -73
34 -80 0 -8 -23 -24 -52 -38 -69 -32 -91 -55 -76 -82 14 -27 -2 -77 -51 -164
-21 -38 -49 -90 -61 -116 -12 -26 -25 -47 -29 -47 -4 0 -20 -24 -35 -54 -15
-30 -53 -85 -84 -122 -57 -69 -135 -190 -146 -230 -9 -30 -65 -81 -74 -67 -10
16 -59 -29 -68 -61 -7 -29 -5 -29 49 -17 30 7 37 6 37 -6 0 -24 -40 -73 -58
-71 -34 3 -53 -2 -47 -12 3 -6 -4 -10 -16 -10 l-23 0 22 -20 c12 -12 22 -32
22 -45 0 -23 -2 -23 -57 -20 -32 2 -83 9 -113 15 -68 13 -99 7 -177 -36 -34
-19 -68 -34 -77 -34 -30 0 -49 -73 -25 -97 12 -12 18 -103 7 -103 -5 0 -17 9
-28 20 -20 20 -25 34 -34 104 -7 54 -29 75 -77 73 -39 -1 -39 -2 -33 -35 5
-25 2 -36 -11 -46 -15 -11 -17 -24 -13 -92 5 -78 5 -79 -28 -118 -47 -55 -70
-119 -55 -152 14 -32 14 -54 -1 -54 -11 0 -130 -98 -136 -112 -2 -5 -7 -8 -12
-8 -5 0 -84 -75 -176 -166 -92 -91 -201 -191 -242 -222 -152 -117 -237 -172
-262 -171 -21 2 -22 2 -4 6 12 2 36 20 55 40 29 30 30 33 9 22 -14 -8 -29 -20
-33 -26 -11 -18 -45 -16 -64 2 -18 19 -16 22 17 27 16 2 24 -1 23 -9 -5 -25
15 -12 42 26 16 25 32 38 41 34 8 -3 14 1 14 11 0 9 5 16 12 16 6 0 8 3 5 6
-11 11 40 44 66 44 17 0 28 7 32 19 3 11 15 23 25 26 11 3 30 21 42 38 12 18
34 43 48 57 15 14 45 52 68 85 23 33 56 78 73 100 25 32 27 41 15 43 -13 3
-12 11 10 48 20 34 24 48 15 57 -8 8 -11 8 -11 -2 0 -10 -16 -12 -72 -6 -149
14 -232 11 -261 -8 -15 -9 -27 -15 -27 -12 0 2 -12 0 -27 -6 -16 -6 -62 -12
-103 -14 -42 -1 -86 -7 -98 -14 -25 -13 -103 -4 -81 10 8 5 0 9 -22 11 -25 2
-34 8 -33 21 2 18 -11 23 -20 8 -3 -4 -18 -6 -32 -3 -20 4 -25 2 -19 -8 5 -8
4 -11 -3 -6 -6 4 -8 14 -5 23 4 11 3 14 -5 9 -7 -4 -12 -5 -12 -2 0 3 19 18
43 33 49 33 51 34 166 195 104 145 193 314 172 327 -11 7 -7 18 18 53 25 35
34 62 46 138 8 52 18 106 21 119 7 22 5 23 -19 17 -15 -3 -27 -3 -27 2 0 5
-13 7 -29 4 -23 -3 -33 2 -55 30 -35 47 -108 85 -179 93 -31 4 -60 11 -63 16
-7 12 -72 39 -93 39 -9 0 -37 -11 -63 -25 -54 -29 -137 -34 -190 -11 -40 17
-173 46 -209 46 -14 0 -34 -7 -45 -15 -20 -15 -74 -20 -74 -7 0 5 -11 14 -25
20 -30 14 -33 38 -5 47 26 8 26 22 -1 30 -16 5 -18 9 -8 21 27 32 -6 25 -94
-20 -81 -41 -98 -47 -131 -41 -20 4 -44 14 -52 22 -22 22 -90 12 -168 -26 -46
-22 -79 -31 -115 -31 -55 0 -71 -15 -71 -65 0 -14 -11 -37 -24 -50 -23 -22
-30 -24 -93 -19 -50 4 -64 3 -53 -5 9 -6 10 -11 3 -11 -6 0 -18 6 -25 14 -8 7
-28 17 -46 21 -17 3 -34 11 -37 16 -4 5 -11 9 -16 9 -6 0 -7 -4 -4 -10 8 -13
7 -13 -109 5 -57 8 -103 20 -112 30 -29 28 25 37 154 25 63 -6 117 -8 120 -5
3 3 -3 12 -14 20 -11 8 -14 15 -6 15 14 0 16 31 4 45 -5 6 -15 37 -23 70 -12
53 -14 57 -19 30 -8 -47 -34 -39 -38 12 -3 38 -1 43 22 49 14 3 26 13 26 21 0
18 -57 73 -76 73 -18 0 -18 27 1 80 26 74 20 107 -26 152 -22 21 -50 43 -62
47 -19 7 -16 10 27 30 27 11 55 21 64 21 21 0 52 -29 52 -49 0 -9 4 -22 9 -30
8 -12 12 -12 25 -2 13 11 16 11 16 0 0 -8 7 -22 14 -32 12 -16 17 -17 36 -5
13 8 19 20 16 31 -3 12 9 33 31 57 19 22 32 44 28 49 -6 11 9 28 64 74 23 19
44 27 71 27 21 0 42 5 45 10 3 6 -2 10 -11 10 -14 0 -12 6 12 32 l29 32 -27
-17 c-40 -25 -41 -22 -14 31 26 52 40 66 72 76 12 4 48 31 80 62 58 54 58 55
14 25 -49 -32 -97 -50 -86 -32 4 6 3 11 -3 11 -5 0 -13 -4 -16 -10 -9 -15 -25
-12 -25 4 0 8 9 18 20 21 29 9 25 23 -6 17 -24 -4 -25 -2 -22 29 2 27 8 34 33
41 20 5 32 3 37 -5 9 -13 53 31 78 79 19 35 -4 51 -33 23 -19 -17 -21 -17 -33
-1 -7 9 -14 29 -14 45 0 15 -4 27 -10 27 -5 0 -10 7 -10 15 0 8 -7 15 -15 15
-13 0 -15 8 -10 38 l5 37 -15 -39 c-8 -22 -17 -51 -20 -65 -7 -38 -70 -104
-92 -96 -7 2 -20 -9 -29 -25 -10 -15 -23 -26 -29 -23 -15 5 16 96 44 128 17
20 61 92 61 101 0 14 -32 0 -49 -22 -15 -19 -21 -22 -21 -11 0 9 11 24 25 33
14 9 25 26 25 37 0 19 -3 18 -34 -12 -20 -20 -39 -30 -46 -26 -17 11 -30 -14
-30 -57 0 -40 13 -49 29 -21 5 10 12 15 15 12 9 -9 -5 -69 -15 -64 -9 6 -49
-33 -49 -47 0 -5 -4 -7 -10 -3 -6 4 -6 15 0 30 6 16 6 25 0 25 -6 0 -10 -9
-10 -19 0 -27 -43 -76 -81 -91 -28 -12 -33 -11 -45 4 -9 13 -10 25 -3 43 5 13
6 49 3 79 l-7 55 60 57 c32 31 77 71 99 87 27 21 40 38 41 58 1 15 -2 27 -8
27 -13 0 -11 37 3 46 7 5 3 10 -12 16 -18 6 -32 3 -59 -15 -20 -13 -53 -35
-73 -48 -21 -13 -38 -27 -38 -31 0 -6 -118 -88 -127 -88 -3 0 -32 -23 -66 -51
-39 -33 -63 -46 -67 -39 -8 14 -20 -11 -20 -41 0 -25 -8 -24 -38 4 l-24 22 6
-35 c6 -32 6 -34 -8 -16 -8 10 -22 42 -32 72 -9 29 -25 61 -35 70 -27 25 -24
70 5 90 28 18 51 75 43 105 -4 14 5 33 29 58 19 21 34 48 34 59 0 45 -95 102
-170 102 -11 0 -20 5 -20 11 0 6 9 8 20 4 11 -4 20 -2 20 4 0 6 -6 11 -12 11
-10 0 -10 2 0 9 7 4 36 2 65 -6 28 -7 68 -13 89 -13 37 0 57 13 37 25 -5 4 -8
13 -5 21 6 15 -66 74 -91 74 -8 0 -23 5 -34 11 -20 10 -20 11 -3 23 17 13 17
15 -1 51 -14 31 -15 42 -6 57 10 16 6 25 -28 59 -23 24 -61 85 -91 145 -39 81
-55 104 -70 104 -33 0 -34 26 -6 89 47 106 29 162 -45 141 -38 -11 -126 -63
-214 -127 -50 -37 -65 -43 -92 -38 -25 4 -35 1 -47 -16 l-15 -22 -38 26 c-80
55 -139 55 -183 0 -22 -28 -19 -43 11 -43 26 0 24 -17 -3 -31 -13 -6 -32 -22
-44 -36 -21 -25 -21 -25 -69 -8 -27 9 -58 15 -69 14 -29 -3 -106 22 -100 33 3
5 11 8 17 7 23 -3 36 1 49 14 7 7 28 23 46 36 28 20 32 28 32 67 0 47 17 91
44 113 17 14 23 56 7 46 -16 -9 -24 64 -13 104 14 46 77 121 102 121 10 0 25
8 32 18 18 24 88 78 121 93 15 7 29 20 32 30 3 9 30 36 60 59 30 23 55 48 55
56 0 7 7 29 16 48 18 37 22 38 171 52 84 8 109 21 99 52 -4 12 -13 22 -21 22
-7 0 -27 8 -43 17 -26 15 -36 16 -65 5 -41 -15 -103 -6 -87 13 5 6 7 14 5 17
-3 3 -8 16 -10 29 -6 29 -31 49 -61 49 -18 0 -24 7 -30 35 -3 20 -17 44 -30
54 -21 16 -44 58 -44 80 0 4 24 18 53 30 28 13 64 30 79 37 36 19 55 18 75 -6
13 -14 20 -17 30 -8 7 6 13 15 13 21 0 6 8 19 17 29 15 16 15 21 3 28 -11 7
-7 15 20 39 48 42 81 53 114 36 24 -13 26 -12 32 11 8 29 24 22 24 -12 0 -13
3 -24 6 -24 14 0 43 48 44 72 0 33 -22 55 -76 80 -67 29 -71 75 -5 64 24 -3
50 1 80 14 24 11 57 20 73 20 45 0 98 36 98 67 0 33 51 83 84 83 16 0 26 -6
26 -15z m-5823 -1587 c-15 -18 -39 -56 -55 -83 -16 -28 -50 -69 -76 -93 -25
-23 -46 -47 -46 -52 0 -6 -15 -27 -34 -47 -18 -21 -40 -52 -49 -69 -9 -17 -23
-37 -33 -45 -13 -11 -12 -5 5 30 27 52 8 52 -26 0 -24 -36 -32 -46 -59 -68
-15 -12 -16 -12 -9 9 6 19 4 22 -9 17 -14 -5 -15 -3 -6 13 9 17 8 19 -7 13
-33 -12 18 37 53 52 20 8 42 31 59 60 15 25 30 44 33 41 3 -3 -1 -12 -8 -21
-21 -25 -2 -30 23 -7 13 12 30 22 38 22 15 1 86 87 109 134 14 28 105 126 117
126 3 0 -6 -15 -20 -32z m14322 -305 c12 -16 26 -34 31 -40 8 -9 7 -13 -1 -13
-7 0 -9 -10 -7 -25 6 -31 -14 -47 -122 -97 -97 -45 -117 -52 -161 -49 -28 1
-38 -3 -41 -16 -7 -27 -97 -56 -160 -51 -42 2 -53 0 -54 -12 -1 -38 -34 -88
-66 -99 -18 -6 -42 -21 -55 -33 l-23 -21 0 42 c0 24 8 56 17 72 21 34 86 69
131 69 20 0 35 7 41 18 6 11 36 38 68 62 32 24 78 63 102 87 24 24 49 43 55
43 6 0 45 21 86 45 89 54 129 58 159 18z m-3551 -156 l11 -32 -3 33 c-2 21 2
32 11 32 7 0 13 -8 13 -18 0 -9 9 -23 20 -29 17 -11 21 -10 31 8 9 17 13 19
20 8 12 -20 47 -20 97 -2 31 12 46 13 54 5 20 -20 -1 -40 -56 -53 -46 -10 -58
-10 -73 2 -10 7 -15 9 -11 5 4 -5 3 -15 -3 -22 -7 -8 -7 -14 1 -19 5 -3 10 -1
10 6 0 9 3 9 14 0 9 -8 28 -10 53 -5 31 5 36 4 26 -7 -21 -22 -15 -31 18 -24
70 16 145 22 159 14 11 -6 11 -8 2 -9 -7 0 -10 -4 -7 -10 3 -5 31 -10 62 -10
46 0 56 -3 60 -19 3 -12 11 -17 19 -14 8 3 14 0 14 -6 0 -6 24 -23 53 -36 66
-33 91 -51 83 -64 -4 -5 -1 -13 5 -17 6 -3 14 -2 18 4 5 8 26 9 60 5 l54 -6
-74 -29 c-41 -17 -77 -35 -81 -41 -7 -11 47 -67 64 -67 3 0 8 -8 10 -17 2 -10
10 -18 18 -18 33 -2 90 -18 90 -26 0 -5 -7 -9 -16 -9 -31 0 -2 -19 53 -35 33
-10 72 -14 92 -11 23 3 40 1 51 -9 8 -7 32 -15 53 -17 20 -2 37 -7 36 -13 -1
-14 31 -24 84 -24 26 -1 47 -4 47 -8 0 -21 87 -48 152 -47 52 0 68 -3 68 -13
0 -8 5 -11 10 -8 6 3 10 2 10 -3 0 -10 119 -52 146 -52 8 0 13 -3 11 -7 -3 -5
11 -9 31 -10 20 -1 39 -9 44 -17 5 -9 15 -16 23 -16 7 0 15 -5 17 -12 6 -18
84 23 143 75 55 49 131 90 185 102 19 4 57 25 85 46 52 39 112 69 140 69 36 0
178 64 252 114 45 30 99 60 122 66 22 6 43 15 46 20 3 6 13 10 22 10 13 0 12
-5 -7 -25 -13 -14 -31 -25 -39 -25 -9 0 -23 -5 -31 -11 -11 -8 -4 -9 28 -5 37
6 42 4 42 -14 0 -21 -33 -60 -50 -60 -5 0 -10 -5 -10 -10 0 -6 -6 -9 -12 -8
-7 2 -12 -3 -10 -10 1 -7 -10 -17 -25 -23 -34 -12 -104 -59 -119 -78 -6 -8
-44 -19 -85 -25 -68 -11 -76 -14 -97 -46 -17 -25 -22 -44 -19 -66 4 -25 -1
-36 -28 -61 -18 -17 -54 -39 -79 -48 -25 -10 -46 -23 -46 -31 0 -13 -27 -29
-139 -83 -46 -22 -62 -35 -57 -46 3 -8 2 -15 -2 -15 -47 -2 -138 -22 -152 -35
-12 -11 -31 -15 -57 -13 l-38 3 30 17 c38 22 18 23 -34 2 -21 -8 -47 -14 -57
-12 -14 2 -20 -4 -22 -21 -3 -17 8 -35 36 -65 42 -43 59 -80 43 -90 -6 -4 -15
4 -22 16 -17 32 -37 50 -48 44 -7 -5 -44 19 -97 63 -5 4 -20 14 -32 20 -42 22
-13 -16 36 -48 79 -51 122 -95 122 -124 0 -31 -14 -34 -56 -12 -37 19 -54 19
-54 -1 0 -12 -10 -8 -42 15 -38 28 -48 31 -120 31 -61 0 -80 -3 -84 -15 -8
-19 -44 -19 -114 0 -30 8 -73 15 -95 15 -22 1 -74 7 -115 15 -41 8 -138 19
-215 25 -77 6 -149 15 -161 19 -12 5 -28 29 -39 57 -24 66 -53 112 -80 130
-26 17 -53 8 -119 -38 -26 -19 -50 -28 -71 -26 -22 1 -45 -8 -77 -31 -75 -53
-170 -66 -238 -31 -67 34 -65 21 -46 341 3 42 12 94 20 114 9 21 16 56 16 80
0 47 17 105 31 105 5 0 9 -9 9 -20 0 -32 27 -89 83 -174 55 -84 74 -89 33 -9
-97 189 -110 225 -130 337 l-14 78 59 -4 c33 -2 59 -2 59 2 0 13 -44 88 -74
125 -36 44 -76 111 -76 125 0 21 28 -4 38 -33z m3602 -104 c0 -4 -5 -21 -12
-39 -9 -26 -9 -42 2 -76 17 -53 31 -73 40 -58 4 6 12 -8 19 -30 7 -23 18 -43
25 -46 11 -4 11 -13 0 -47 -7 -23 -16 -55 -20 -72 l-7 -30 -7 38 c-9 46 -19
58 -27 29 -6 -26 -18 -28 -27 -5 -5 12 -10 13 -18 5 -8 -8 -15 -7 -25 6 -12
16 -14 15 -32 -5 -24 -29 -81 -31 -97 -5 -8 13 -9 57 -1 160 l10 143 31 16
c23 12 34 13 48 4 15 -9 23 -8 41 4 22 15 57 21 57 8z m-12207 -280 c-3 -10
-9 -22 -13 -28 -13 -18 -7 -45 9 -45 10 -1 5 -7 -11 -16 -28 -14 -38 -34 -18
-34 17 0 11 -36 -10 -63 -13 -16 -16 -28 -10 -32 15 -9 12 -31 -6 -49 -14 -15
-13 -16 9 -16 13 0 45 6 70 14 26 8 47 11 47 6 0 -4 -13 -10 -29 -13 -29 -6
-34 -19 -18 -45 10 -14 -29 -31 -76 -33 -22 -1 -25 -3 -11 -6 15 -3 20 -10 17
-22 -3 -10 0 -22 6 -25 20 -13 11 -25 -31 -46 l-43 -20 35 5 c27 4 32 3 22 -7
-17 -17 -15 -29 3 -22 22 9 18 -10 -5 -31 -12 -10 -18 -25 -16 -32 3 -7 2 -13
-3 -13 -5 0 -12 -12 -15 -26 -6 -21 -11 -25 -29 -20 -12 3 -35 6 -51 6 -29 0
-29 0 15 32 l44 32 -44 9 c-32 6 -40 11 -30 18 11 7 10 9 -6 10 -11 1 -26 0
-34 -1 -8 -1 -12 4 -8 13 4 11 -7 22 -36 36 -39 19 -40 20 -14 21 15 0 27 -3
27 -7 0 -11 50 -33 72 -33 22 0 22 4 2 36 -9 13 -15 27 -12 29 2 2 28 6 57 9
29 3 56 8 60 12 3 4 -16 4 -42 2 -59 -7 -73 11 -57 71 5 21 9 56 8 78 -1 44
10 73 22 54 3 -7 7 2 7 19 0 16 -4 30 -8 30 -14 0 -39 -44 -39 -69 0 -23 -1
-24 -20 -6 -11 10 -20 23 -20 29 0 6 5 4 10 -4 5 -8 10 -10 10 -4 0 19 -29 37
-50 31 -11 -3 -20 -1 -20 4 0 5 8 9 18 9 19 0 42 18 42 32 0 5 -13 2 -30 -7
-36 -19 -40 -19 -40 0 0 15 57 45 111 58 14 4 57 25 95 47 76 44 97 50 87 23z
m8484 -399 c6 -56 6 -235 -1 -241 -5 -5 -70 19 -83 31 -9 8 -10 26 -2 71 5 33
12 88 16 122 4 43 9 60 18 57 6 -3 18 2 25 11 17 21 19 18 27 -51z m2055 -355
c9 -20 23 -41 32 -48 9 -8 16 -19 16 -25 0 -6 -5 -4 -10 4 -17 26 -11 -6 9
-51 11 -24 17 -47 15 -51 -3 -4 -1 -8 5 -8 6 0 17 12 25 28 13 23 15 24 17 7
2 -36 17 25 18 77 1 37 6 50 21 58 19 10 20 8 16 -27 -14 -106 -16 -153 -6
-153 17 0 11 -20 -15 -46 -14 -14 -29 -23 -34 -20 -5 3 -11 -1 -15 -9 -6 -17
9 -21 19 -5 11 18 27 11 22 -10 -7 -28 10 -25 36 6 55 66 122 124 135 119 8
-3 30 6 48 20 34 26 94 55 114 55 5 0 10 -7 10 -15 0 -8 -3 -15 -7 -15 -8 0
-54 -35 -84 -65 -9 -8 -38 -59 -66 -113 l-49 -98 -33 13 c-29 12 -31 16 -19
30 11 14 10 15 -12 8 -14 -4 -29 -11 -35 -15 -18 -14 -66 2 -83 28 -9 14 -24
44 -32 66 -9 23 -25 45 -38 51 -14 6 -22 19 -22 33 0 13 -5 33 -11 44 -9 17
-13 18 -20 7 -8 -12 -11 -12 -19 1 -16 25 -13 -11 5 -54 11 -25 13 -49 8 -74
l-7 -37 -6 30 c-6 35 -21 37 -35 6 -8 -18 -15 -20 -40 -15 -45 9 -159 72 -186
101 l-24 26 23 -6 c12 -3 22 -1 22 4 0 5 18 2 40 -7 36 -15 41 -15 55 0 9 9
26 44 37 78 11 35 24 67 28 72 5 4 26 5 48 1 32 -5 39 -10 34 -23 -5 -14 -4
-15 10 -2 10 9 13 19 7 25 -5 5 -9 15 -9 23 0 24 24 7 42 -29z m-8677 -79 c13
-39 15 -68 10 -128 -8 -83 -19 -119 -29 -92 -11 29 -27 65 -41 90 -19 33 -19
94 0 110 8 7 15 25 15 41 0 47 27 35 45 -21z m9316 -160 c21 0 -2 -270 -27
-307 -14 -22 -52 -34 -39 -13 4 6 -6 10 -23 10 -36 0 -90 35 -111 72 -9 16
-31 39 -50 53 -28 20 -31 26 -18 31 10 3 17 10 17 16 0 5 11 26 25 46 14 20
25 45 25 56 0 11 3 17 6 13 4 -3 1 -35 -6 -71 -8 -41 -9 -70 -3 -81 7 -13 16
9 36 87 20 78 25 90 21 49 -4 -32 -2 -51 3 -48 5 3 9 -30 9 -79 -1 -78 -7
-102 -19 -71 -3 7 -6 4 -6 -6 -1 -12 5 -17 17 -16 9 2 29 0 45 -4 35 -9 75 9
57 26 -10 9 -14 9 -17 0 -3 -7 -8 -13 -13 -13 -4 0 0 30 10 68 10 37 21 100
25 141 8 87 19 121 23 74 2 -18 7 -33 13 -33z m-9075 -299 c12 10 14 4 15 -37
1 -57 12 -94 23 -76 4 7 23 12 42 12 30 0 34 -3 29 -19 -3 -12 0 -21 10 -25
23 -8 18 -61 -8 -92 -27 -32 -65 -29 -48 4 8 15 5 18 -16 17 -29 0 -45 25 -16
26 13 0 9 5 -12 15 -25 13 -34 27 -48 77 -17 59 -17 71 0 115 6 14 7 14 11 -6
3 -19 6 -21 18 -11z m1443 -36 c46 -20 50 -29 20 -46 -16 -8 -20 -18 -16 -42
4 -27 -3 -41 -45 -89 -27 -31 -49 -60 -48 -63 1 -12 -29 -61 -49 -79 -22 -20
-30 -9 -9 12 8 8 8 15 -1 26 -10 12 -8 18 13 31 31 20 34 35 7 35 -10 0 -35
-18 -55 -40 -20 -22 -38 -40 -40 -40 -9 0 -28 61 -23 74 3 8 25 27 47 43 l42
27 17 -22 c13 -18 19 -20 29 -10 18 18 14 38 -8 38 -30 0 -25 31 11 71 18 21
28 41 25 52 -12 46 14 53 83 22z m-1069 -317 c0 -13 -9 -41 -19 -64 -25 -55
-91 -89 -158 -81 -25 3 -48 9 -52 15 -3 5 -17 12 -31 13 -37 6 -36 35 3 74 40
40 57 45 50 13 l-6 -23 24 21 c31 27 85 45 114 38 13 -3 26 -1 29 5 4 6 16 11
27 11 13 0 19 -7 19 -22z m360 -54 c0 -8 5 -14 10 -14 6 0 3 -16 -6 -37 -16
-37 -20 -80 -8 -92 3 -3 17 8 31 24 l25 30 -7 -55 c-12 -101 -57 -130 -85 -55
-24 61 -65 61 -76 -1 -6 -40 -41 -67 -73 -59 -35 9 -49 24 -32 34 9 6 4 11
-19 19 -42 15 -34 36 15 40 42 4 116 48 152 91 l23 26 0 -25 c1 -24 1 -24 15
-6 16 21 20 38 8 34 -14 -5 -15 12 -4 43 10 30 31 32 31 3z m2545 -373 c-8
-37 -51 -68 -74 -54 -28 18 -192 -56 -237 -107 -19 -21 -34 -28 -55 -27 -35 2
-36 15 -7 52 25 32 121 77 236 111 46 13 95 33 109 44 31 24 37 21 28 -19z
m1205 -841 c0 -16 5 -30 10 -30 7 0 7 -6 1 -18 -6 -12 -6 -23 0 -33 9 -12 11
-12 16 0 3 7 18 28 34 45 48 53 32 8 -21 -57 -40 -49 -56 -80 -79 -157 -40
-130 -43 -147 -28 -154 6 -3 3 -4 -8 -3 -17 2 -20 9 -17 42 2 22 7 56 13 75 5
19 9 58 9 86 0 54 15 149 31 202 13 41 39 43 39 2z m-1250 -4 c-1 -6 -7 -22
-15 -36 -8 -14 -14 -36 -14 -50 0 -23 2 -22 40 20 22 25 48 53 56 63 9 9 25
17 35 17 15 0 13 -7 -15 -47 -19 -27 -37 -57 -41 -68 -14 -40 -91 -145 -103
-141 -7 3 -10 -1 -7 -7 5 -14 -73 -63 -84 -52 -3 3 25 35 63 69 39 35 67 67
62 72 -4 4 -39 -25 -77 -64 -39 -40 -73 -72 -76 -72 -3 0 16 26 44 58 54 63
96 132 48 79 -14 -15 -26 -25 -26 -21 0 8 39 140 50 169 8 21 60 32 60 11z
m261 -23 c13 -15 -32 -134 -55 -144 -11 -5 -31 -16 -43 -25 l-23 -16 15 30 c9
16 22 35 30 42 19 16 19 30 0 30 -8 0 -23 -17 -34 -37 -10 -21 -28 -46 -38
-55 -19 -18 -19 -17 -10 35 8 47 22 83 52 138 5 10 16 20 25 22 18 4 71 -9 81
-20z m1149 -107 c0 -11 12 -32 26 -47 l26 -27 -28 -43 c-31 -51 -77 -94 -119
-115 -17 -8 -54 -35 -83 -60 -87 -76 -68 -44 34 56 101 99 128 137 114 160
-11 18 -37 6 -57 -28 -22 -35 -133 -157 -133 -145 0 13 29 54 70 98 70 76 82
113 28 84 -18 -10 -19 -8 -13 13 11 35 26 49 45 43 13 -4 24 5 40 30 21 33 23
35 36 18 7 -10 14 -27 14 -37z m-333 2 c4 -58 -9 -86 -62 -141 -45 -48 -51
-57 -33 -57 21 0 21 0 -2 -25 -30 -32 -20 -42 20 -22 l30 16 -19 -25 c-11 -14
-36 -38 -57 -55 -49 -39 -75 -70 -68 -81 11 -17 -19 -58 -53 -75 -41 -19 -52
-12 -24 16 12 12 21 26 21 32 0 6 11 25 25 43 21 28 54 129 82 253 7 32 29 48
47 34 11 -9 20 -2 45 37 17 27 31 54 31 60 0 22 16 12 17 -10z m-8831 -519
c-1 -19 -12 -42 -29 -58 l-27 -28 28 5 c17 2 33 -2 40 -11 10 -12 4 -17 -35
-31 -27 -10 -70 -26 -97 -37 -44 -17 -48 -17 -41 -1 3 9 10 37 15 62 5 25 13
58 19 73 6 16 9 32 6 37 -7 11 19 17 76 19 46 1 47 1 45 -30z"/>
<path d="M10556 3777 c0 -60 6 -96 22 -135 12 -29 22 -61 22 -73 0 -18 15 -54
37 -86 5 -6 21 -15 37 -19 25 -6 28 -4 23 10 -4 10 -2 16 6 15 30 -4 47 2 47
16 0 8 -4 15 -9 15 -24 0 -131 130 -131 160 0 6 -8 28 -18 49 -18 37 -18 38
-1 37 10 -1 25 -10 33 -21 15 -19 15 -18 9 15 -3 20 -20 49 -39 68 -18 17 -34
32 -36 32 -2 0 -3 -37 -2 -83z"/>
<path d="M7864 3566 c-9 -24 53 -145 79 -155 29 -11 33 -6 13 15 -9 9 -15 19
-12 21 8 8 66 -8 66 -18 0 -5 6 -9 14 -9 8 0 29 -14 47 -32 19 -17 26 -29 17
-25 -10 3 -20 2 -23 -2 -3 -5 2 -12 11 -15 25 -10 158 -7 174 4 13 9 13 10 0
10 -9 0 -11 3 -5 8 6 4 16 15 23 24 11 14 10 20 -6 36 -19 19 -52 36 -65 34
-4 -1 -25 9 -47 23 -49 31 -70 33 -63 4 3 -11 12 -23 19 -26 25 -9 15 -20 -13
-15 -16 2 -65 31 -110 63 -97 70 -111 76 -119 55z"/>
<path d="M9305 2919 c4 -6 -2 -13 -13 -16 -14 -3 -19 -11 -17 -24 2 -10 -2
-19 -8 -19 -12 0 35 -28 83 -50 14 -6 35 -20 46 -31 37 -35 151 -67 259 -74
l100 -6 -98 34 c-58 21 -122 52 -155 76 -60 44 -186 121 -197 121 -3 0 -3 -5
0 -11z"/>
<path d="M9360 2740 c0 -5 -9 -10 -20 -10 -17 0 -19 -3 -10 -19 16 -30 12 -44
-10 -38 -11 3 -20 1 -20 -5 0 -10 43 -66 106 -137 65 -72 82 -117 36 -92 -33
18 -46 13 -64 -25 -20 -39 -23 -58 -8 -49 5 3 26 -3 47 -13 254 -128 284 -145
274 -155 -6 -6 -25 1 -53 17 -45 26 -78 33 -78 17 0 -9 27 -21 92 -41 38 -11
55 -26 44 -37 -3 -3 -17 2 -30 11 -28 18 -56 21 -56 6 0 -5 -7 -10 -15 -10 -8
0 -15 -9 -15 -20 0 -15 9 -22 30 -27 50 -10 47 -25 -3 -18 l-45 7 16 -36 c9
-20 24 -38 32 -41 27 -8 67 -57 53 -62 -7 -3 -13 -13 -13 -23 0 -11 -8 -23
-17 -29 -17 -9 -17 -10 -1 -16 31 -12 208 -31 221 -23 7 4 -1 12 -25 22 -29
12 -43 13 -68 5 -32 -12 -80 0 -80 19 0 14 87 23 116 12 15 -6 42 -12 61 -15
20 -2 51 -16 69 -30 24 -18 44 -25 66 -23 31 3 30 4 -40 51 -64 42 -92 77 -62
77 19 0 109 -52 144 -82 17 -16 46 -25 46 -15 0 2 -15 19 -32 38 -53 56 -78
92 -80 114 -4 61 -23 91 -85 133 -67 46 -98 77 -108 110 -3 12 -21 29 -38 38
-18 9 -48 31 -67 49 -19 17 -63 48 -96 69 -73 43 -141 113 -125 129 7 7 6 18
-4 36 -7 15 -17 44 -21 65 -7 38 -34 76 -54 76 -5 0 -10 -4 -10 -10z"/>
<path d="M10000 2521 c0 -5 5 -13 10 -16 6 -4 10 -12 9 -18 -3 -27 3 -35 34
-47 74 -30 126 -90 77 -90 -44 0 -8 -41 42 -47 l30 -3 -23 19 -24 20 35 -13
c19 -7 46 -18 60 -24 l25 -11 -30 -1 c-27 -1 -28 -2 -11 -12 10 -6 35 -13 55
-15 30 -4 33 -3 23 9 -6 8 -9 17 -6 21 3 3 -14 15 -38 27 -23 12 -63 41 -88
65 -25 23 -64 54 -88 67 -24 14 -44 29 -45 34 -1 13 -47 47 -47 35z"/>
<path d="M7528 2445 c-3 -3 -22 -7 -42 -8 -46 -4 -99 -51 -90 -81 5 -14 -1
-26 -20 -41 -26 -21 -26 -22 -9 -42 13 -14 24 -18 38 -12 11 4 50 8 87 8 69 1
140 20 105 28 -18 5 -18 5 0 19 11 8 13 13 5 14 -9 0 -10 5 -2 19 8 16 6 22
-7 30 -17 10 -16 10 2 11 11 1 14 4 8 7 -7 2 -13 9 -13 15 0 21 -48 47 -62 33z"/>
<path d="M9500 1096 c-7 -9 -16 -13 -21 -11 -4 3 -13 -3 -19 -14 -9 -17 -8
-19 5 -15 8 4 15 1 15 -5 0 -6 7 -8 15 -5 23 9 18 -10 -10 -36 -14 -13 -41
-47 -61 -76 -20 -29 -54 -64 -74 -78 -39 -26 -116 -113 -108 -121 6 -7 50 31
48 42 -1 4 12 11 29 15 30 8 79 61 139 150 18 26 45 56 61 67 21 16 101 87 82
74 -2 -2 -9 1 -15 6 -23 19 -72 22 -86 7z"/>
<path d="M11867 3990 c3 -11 21 -29 39 -41 36 -22 36 -23 39 -79 1 -19 6 -61
10 -92 5 -41 4 -58 -4 -58 -6 0 -11 7 -11 15 0 9 -6 12 -15 9 -11 -5 -15 1
-15 21 0 15 4 24 10 20 6 -3 10 0 10 9 0 8 3 21 6 30 3 9 2 16 -2 16 -16 0
-64 -112 -55 -128 5 -8 28 -16 55 -18 44 -3 49 -1 98 46 l52 50 -22 29 c-12
17 -22 37 -22 45 0 8 -23 31 -50 51 -28 20 -56 45 -63 54 -11 16 -48 41 -60
41 -3 0 -3 -9 0 -20z"/>
<path d="M12228 3848 c11 -13 44 -50 72 -83 68 -78 73 -82 139 -101 30 -8 82
-30 115 -47 107 -56 116 -57 64 -7 -20 18 -56 37 -90 47 -55 16 -103 51 -110
83 -3 16 -41 50 -56 50 -5 0 -30 18 -55 40 -29 26 -55 40 -72 40 l-27 0 20
-22z"/>
<path d="M2507 4523 c-25 -24 27 -131 80 -167 44 -30 53 -24 60 38 5 44 4 46
-20 46 -18 0 -34 13 -58 45 -33 43 -48 52 -62 38z"/>
<path d="M806 4242 c-16 -15 -19 -15 -24 -2 -3 8 -18 -23 -33 -70 -15 -46 -24
-87 -19 -90 4 -3 4 -25 0 -50 -15 -75 -14 -80 20 -76 17 2 32 5 33 7 1 2 13
17 27 32 19 22 21 30 11 36 -8 5 -12 26 -11 57 1 27 2 69 1 93 -1 24 4 50 10
57 18 22 5 26 -15 6z"/>
<path d="M939 4011 c-13 -18 -23 -38 -21 -43 1 -5 -5 -22 -13 -39 -9 -16 -13
-33 -10 -38 2 -5 -2 -25 -10 -45 -17 -40 -20 -90 -5 -81 6 4 10 -9 10 -30 0
-47 19 -42 37 11 28 80 55 242 46 271 l-9 27 -25 -33z"/>
<path d="M724 3839 c-13 -14 -19 -37 -20 -68 0 -43 -14 -82 -65 -187 -11 -23
-23 -60 -25 -83 -5 -41 -4 -42 16 -31 20 11 21 10 10 -10 -13 -25 -9 -33 11
-25 23 9 75 125 60 134 -17 11 6 28 43 33 16 1 34 11 40 20 17 27 0 32 -30 9
-38 -30 -51 -26 -17 5 24 22 25 24 7 19 -18 -5 -21 -2 -17 17 9 55 18 188 13
188 -4 0 -15 -9 -26 -21z"/>
</g>
</svg>
